<svg xmlns="http://www.w3.org/2000/svg" width="800" height="800" viewBox="0 0 800 800">
  <rect width="800" height="800" fill="#ffffff"/>
  <!-- Renglon: linea superior, media (punteada) y base -->
  <g stroke="#dfe6e9" stroke-width="4" fill="none">
    <path d="M 60 200 H 760"/>
    <path d="M 60 600 H 760"/>
  </g>
  <g stroke="#dfe6e9" stroke-width="3" stroke-dasharray="10 14" fill="none">
    <path d="M 60 400 H 760"/>
  </g>
  <!-- L mayuscula: baja y gira a la derecha. l minuscula: un palito alto. -->
  <g fill="none" stroke="#5a9bd5" stroke-width="14" stroke-dasharray="20 26" stroke-linecap="round">
    <path d="M 140 200 L 140 600 L 320 600"/>
    <path d="M 600 200 L 600 600"/>
  </g>
  <!-- Flechas de direccion -->
  <g fill="#5a9bd5">
    <polygon points="-16,-15 -16,15 16,0" transform="translate(140,390) rotate(90)"/>
    <polygon points="-16,-15 -16,15 16,0" transform="translate(235,600) rotate(0)"/>
    <polygon points="-16,-15 -16,15 16,0" transform="translate(600,400) rotate(90)"/>
  </g>
  <!-- Fin de cada trazo -->
  <g fill="#e74c3c">
    <circle cx="320" cy="600" r="16"/>
    <circle cx="600" cy="600" r="16"/>
  </g>
  <!-- Inicio de cada trazo (se pinta al final para que quede encima) -->
  <g fill="#2ecc71">
    <circle cx="140" cy="200" r="16"/>
    <circle cx="600" cy="200" r="16"/>
  </g>
</svg>
