<svg xmlns="http://www.w3.org/2000/svg" width="800" height="800" viewBox="0 0 800 800">
  <rect width="800" height="800" fill="#ffffff"/>
  <g fill="#ffffff" stroke="#2b2b2b" stroke-width="12" stroke-linejoin="round" stroke-linecap="round">
    <polygon points="400,55 355,165 445,165"/>
    <polygon points="400,55 355,165 445,165" transform="rotate(45,400,400)"/>
    <polygon points="400,55 355,165 445,165" transform="rotate(90,400,400)"/>
    <polygon points="400,55 355,165 445,165" transform="rotate(135,400,400)"/>
    <polygon points="400,55 355,165 445,165" transform="rotate(180,400,400)"/>
    <polygon points="400,55 355,165 445,165" transform="rotate(225,400,400)"/>
    <polygon points="400,55 355,165 445,165" transform="rotate(270,400,400)"/>
    <polygon points="400,55 355,165 445,165" transform="rotate(315,400,400)"/>
    <circle cx="400" cy="400" r="185"/>
  </g>
  <g fill="#2b2b2b">
    <circle cx="340" cy="370" r="14"/>
    <circle cx="460" cy="370" r="14"/>
  </g>
  <path d="M 325 445 Q 400 505 475 445" fill="none" stroke="#2b2b2b" stroke-width="10" stroke-linecap="round"/>
</svg>
