<svg xmlns="http://www.w3.org/2000/svg" width="800" height="800" viewBox="0 0 800 800">
  <rect width="800" height="800" fill="#ffffff"/>
  <g fill="none" stroke="#2b2b2b" stroke-width="10" stroke-linecap="round">
    <path d="M 385 225 Q 350 130 305 95"/>
    <path d="M 415 225 Q 450 130 495 95"/>
  </g>
  <circle cx="305" cy="95" r="14" fill="#2b2b2b"/>
  <circle cx="495" cy="95" r="14" fill="#2b2b2b"/>
  <g fill="#ffffff" stroke="#2b2b2b" stroke-width="12" stroke-linejoin="round" stroke-linecap="round">
    <ellipse cx="245" cy="320" rx="150" ry="120" transform="rotate(-25,245,320)"/>
    <ellipse cx="555" cy="320" rx="150" ry="120" transform="rotate(25,555,320)"/>
    <ellipse cx="265" cy="540" rx="110" ry="92" transform="rotate(20,265,540)"/>
    <ellipse cx="535" cy="540" rx="110" ry="92" transform="rotate(-20,535,540)"/>
    <circle cx="240" cy="320" r="48"/>
    <circle cx="560" cy="320" r="48"/>
    <circle cx="265" cy="540" r="34"/>
    <circle cx="535" cy="540" r="34"/>
    <ellipse cx="400" cy="430" rx="40" ry="150"/>
  </g>
  <g fill="none" stroke="#2b2b2b" stroke-width="8" stroke-linecap="round">
    <path d="M 362 400 H 438"/>
    <path d="M 362 480 H 438"/>
  </g>
  <circle cx="400" cy="245" r="52" fill="#ffffff" stroke="#2b2b2b" stroke-width="12"/>
  <g fill="#2b2b2b">
    <circle cx="383" cy="235" r="8"/>
    <circle cx="417" cy="235" r="8"/>
  </g>
  <path d="M 380 260 Q 400 275 420 260" fill="none" stroke="#2b2b2b" stroke-width="8" stroke-linecap="round"/>
</svg>
