<svg xmlns="http://www.w3.org/2000/svg" width="800" height="800" viewBox="0 0 800 800">
  <rect width="800" height="800" fill="#ffffff"/>
  <path d="M 80 680 H 720" fill="none" stroke="#2b2b2b" stroke-width="10" stroke-linecap="round"/>
  <path d="M 278 452 L 278 660 Q 278 690 400 690 Q 522 690 522 660 L 522 452 Z" fill="#ffffff" stroke="#2b2b2b" stroke-width="12" stroke-linejoin="round"/>
  <path d="M 190 460 Q 190 250 400 238 Q 610 250 610 460 Q 512 424 400 424 Q 288 424 190 460 Z" fill="#ffffff" stroke="#2b2b2b" stroke-width="12" stroke-linejoin="round"/>
  <g fill="#ffffff" stroke="#2b2b2b" stroke-width="9">
    <circle cx="318" cy="352" r="34"/>
    <circle cx="470" cy="342" r="30"/>
    <circle cx="400" cy="300" r="26"/>
    <circle cx="248" cy="418" r="22"/>
    <circle cx="548" cy="418" r="24"/>
  </g>
  <path d="M 356 690 L 356 578 Q 356 542 400 542 Q 444 542 444 578 L 444 690 Z" fill="#ffffff" stroke="#2b2b2b" stroke-width="11" stroke-linejoin="round"/>
  <circle cx="428" cy="616" r="7" fill="#2b2b2b"/>
  <g fill="#ffffff" stroke="#2b2b2b" stroke-width="9">
    <circle cx="322" cy="524" r="28"/>
  </g>
  <g fill="none" stroke="#2b2b2b" stroke-width="6" stroke-linecap="round">
    <path d="M 322 498 V 550"/>
    <path d="M 296 524 H 348"/>
  </g>
</svg>
