<svg xmlns="http://www.w3.org/2000/svg" width="800" height="800" viewBox="0 0 800 800">
  <rect width="800" height="800" fill="#ffffff"/>
  <path transform="translate(400,360)" d="M 0 150 C -115 60 -158 -22 -158 -80 C -158 -128 -110 -150 -68 -126 C -38 -110 -14 -84 0 -52 C 14 -84 38 -110 68 -126 C 110 -150 158 -128 158 -80 C 158 -22 115 60 0 150 Z" fill="#ffffff" stroke="#2b2b2b" stroke-width="12" stroke-linejoin="round"/>
  <g fill="#ffffff" stroke="#2b2b2b" stroke-width="8" stroke-linejoin="round">
    <path transform="translate(150,205)" d="M 0 30 C -34 -4 -48 -24 -48 -42 C -48 -60 -28 -68 -14 -56 C -6 -49 -2 -42 0 -35 C 2 -42 6 -49 14 -56 C 28 -68 48 -60 48 -42 C 48 -24 34 -4 0 30 Z"/>
    <path transform="translate(650,205)" d="M 0 30 C -34 -4 -48 -24 -48 -42 C -48 -60 -28 -68 -14 -56 C -6 -49 -2 -42 0 -35 C 2 -42 6 -49 14 -56 C 28 -68 48 -60 48 -42 C 48 -24 34 -4 0 30 Z"/>
    <path transform="translate(150,600)" d="M 0 30 C -34 -4 -48 -24 -48 -42 C -48 -60 -28 -68 -14 -56 C -6 -49 -2 -42 0 -35 C 2 -42 6 -49 14 -56 C 28 -68 48 -60 48 -42 C 48 -24 34 -4 0 30 Z"/>
    <path transform="translate(650,600)" d="M 0 30 C -34 -4 -48 -24 -48 -42 C -48 -60 -28 -68 -14 -56 C -6 -49 -2 -42 0 -35 C 2 -42 6 -49 14 -56 C 28 -68 48 -60 48 -42 C 48 -24 34 -4 0 30 Z"/>
    <path transform="translate(400,155)" d="M 0 30 C -34 -4 -48 -24 -48 -42 C -48 -60 -28 -68 -14 -56 C -6 -49 -2 -42 0 -35 C 2 -42 6 -49 14 -56 C 28 -68 48 -60 48 -42 C 48 -24 34 -4 0 30 Z"/>
    <path transform="translate(400,655)" d="M 0 30 C -34 -4 -48 -24 -48 -42 C -48 -60 -28 -68 -14 -56 C -6 -49 -2 -42 0 -35 C 2 -42 6 -49 14 -56 C 28 -68 48 -60 48 -42 C 48 -24 34 -4 0 30 Z"/>
  </g>
</svg>
