<svg xmlns="http://www.w3.org/2000/svg" width="800" height="800" viewBox="0 0 800 800">
  <rect width="800" height="800" fill="#ffffff"/>
  <g fill="#ffffff" stroke="#2b2b2b" stroke-width="12" stroke-linejoin="round">
    <circle cx="312" cy="238" r="50"/>
    <circle cx="258" cy="322" r="56"/>
    <circle cx="246" cy="430" r="54"/>
    <circle cx="276" cy="528" r="48"/>
    <circle cx="512" cy="262" r="46"/>
    <circle cx="548" cy="360" r="48"/>
  </g>
  <g fill="#ffffff" stroke="#2b2b2b" stroke-width="12" stroke-linejoin="round">
    <polygon points="332,288 302,202 372,268"/>
    <polygon points="468,288 498,202 428,268"/>
  </g>
  <polygon points="400,108 373,240 427,240" fill="#ffffff" stroke="#2b2b2b" stroke-width="12" stroke-linejoin="round"/>
  <g fill="none" stroke="#2b2b2b" stroke-width="7" stroke-linecap="round">
    <path d="M 381 208 L 419 198"/>
    <path d="M 386 176 L 414 168"/>
    <path d="M 391 146 L 409 141"/>
  </g>
  <ellipse cx="400" cy="428" rx="146" ry="162" fill="#ffffff" stroke="#2b2b2b" stroke-width="12"/>
  <g fill="#ffffff" stroke="#2b2b2b" stroke-width="11" stroke-linejoin="round">
    <circle cx="368" cy="300" r="30"/>
    <circle cx="432" cy="300" r="30"/>
    <circle cx="400" cy="282" r="34"/>
  </g>
  <g fill="#ffffff" stroke="#2b2b2b" stroke-width="11">
    <ellipse cx="350" cy="415" rx="24" ry="32"/>
    <ellipse cx="450" cy="415" rx="24" ry="32"/>
  </g>
  <g fill="#2b2b2b">
    <circle cx="350" cy="420" r="12"/>
    <circle cx="450" cy="420" r="12"/>
  </g>
  <g fill="none" stroke="#2b2b2b" stroke-width="6" stroke-linecap="round">
    <path d="M 326 388 L 312 378"/>
    <path d="M 330 378 L 318 366"/>
    <path d="M 474 388 L 488 378"/>
    <path d="M 470 378 L 482 366"/>
  </g>
  <g fill="none" stroke="#2b2b2b" stroke-width="9" stroke-linecap="round">
    <circle cx="322" cy="475" r="18"/>
    <circle cx="478" cy="475" r="18"/>
  </g>
  <g fill="#2b2b2b">
    <circle cx="384" cy="512" r="6"/>
    <circle cx="416" cy="512" r="6"/>
  </g>
  <path d="M 384 536 Q 400 550 416 536" fill="none" stroke="#2b2b2b" stroke-width="7" stroke-linecap="round"/>
</svg>
