<svg xmlns="http://www.w3.org/2000/svg" width="800" height="800" viewBox="0 0 800 800">
  <rect width="800" height="800" fill="#ffffff"/>
  <g fill="none" stroke="#2b2b2b" stroke-width="8" stroke-linecap="round">
    <path d="M 90 600 A 310 310 0 0 1 710 600"/>
    <path d="M 138 600 A 262 262 0 0 1 662 600"/>
    <path d="M 186 600 A 214 214 0 0 1 614 600"/>
    <path d="M 234 600 A 166 166 0 0 1 566 600"/>
    <path d="M 282 600 A 118 118 0 0 1 518 600"/>
    <path d="M 330 600 A 70 70 0 0 1 470 600"/>
  </g>
  <path d="M 70 648 Q 38 648 42 618 Q 20 592 56 580 Q 60 546 100 560 Q 126 530 168 556 Q 210 534 242 560 Q 288 546 308 580 Q 350 584 338 622 Q 350 648 312 648 Z" fill="#ffffff" stroke="#2b2b2b" stroke-width="10" stroke-linejoin="round"/>
  <path d="M 730 648 Q 762 648 758 618 Q 780 592 744 580 Q 740 546 700 560 Q 674 530 632 556 Q 590 534 558 560 Q 512 546 492 580 Q 450 584 462 622 Q 450 648 488 648 Z" fill="#ffffff" stroke="#2b2b2b" stroke-width="10" stroke-linejoin="round"/>
  <g fill="#ffffff" stroke="#2b2b2b" stroke-width="9" stroke-linejoin="round">
    <path d="M 610 235 Q 588 235 590 214 Q 574 196 600 188 Q 604 164 632 174 Q 650 154 680 172 Q 712 166 716 192 Q 740 196 730 222 Q 738 240 712 238 Z"/>
  </g>
  <g fill="#2b2b2b">
    <circle cx="640" cy="205" r="6"/>
    <circle cx="686" cy="205" r="6"/>
  </g>
  <path d="M 640 220 Q 663 234 686 220" fill="none" stroke="#2b2b2b" stroke-width="6" stroke-linecap="round"/>
</svg>
