<svg xmlns="http://www.w3.org/2000/svg" width="800" height="800" viewBox="0 0 800 800">
  <rect width="800" height="800" fill="#ffffff"/>
  <g fill="none" stroke="#2b2b2b" stroke-width="10" stroke-linecap="round">
    <path d="M 356 178 Q 336 130 312 118"/>
    <path d="M 444 178 Q 464 130 488 118"/>
  </g>
  <g fill="#ffffff" stroke="#2b2b2b" stroke-width="10">
    <circle cx="308" cy="112" r="16"/>
    <circle cx="492" cy="112" r="16"/>
  </g>
  <g fill="none" stroke="#2b2b2b" stroke-width="10" stroke-linecap="round">
    <path d="M 214 360 L 150 338"/>
    <path d="M 210 444 L 142 448"/>
    <path d="M 224 524 L 160 552"/>
    <path d="M 586 360 L 650 338"/>
    <path d="M 590 444 L 658 448"/>
    <path d="M 576 524 L 640 552"/>
  </g>
  <circle cx="400" cy="238" r="96" fill="#ffffff" stroke="#2b2b2b" stroke-width="12"/>
  <g fill="#ffffff" stroke="#2b2b2b" stroke-width="9">
    <circle cx="368" cy="222" r="16"/>
    <circle cx="432" cy="222" r="16"/>
  </g>
  <circle cx="400" cy="452" r="192" fill="#ffffff" stroke="#2b2b2b" stroke-width="12"/>
  <path d="M 400 268 V 640" fill="none" stroke="#2b2b2b" stroke-width="11" stroke-linecap="round"/>
  <g fill="#ffffff" stroke="#2b2b2b" stroke-width="9">
    <circle cx="322" cy="372" r="28"/>
    <circle cx="300" cy="470" r="26"/>
    <circle cx="342" cy="562" r="24"/>
    <circle cx="478" cy="372" r="28"/>
    <circle cx="500" cy="470" r="26"/>
    <circle cx="458" cy="562" r="24"/>
  </g>
</svg>
