<svg xmlns="http://www.w3.org/2000/svg" width="800" height="800" viewBox="0 0 800 800">
  <rect width="800" height="800" fill="#ffffff"/>
  <polygon points="322,486 478,486 400,712" fill="#ffffff" stroke="#2b2b2b" stroke-width="12" stroke-linejoin="round"/>
  <g fill="none" stroke="#2b2b2b" stroke-width="6" stroke-linecap="round">
    <path d="M 348 520 L 420 690"/>
    <path d="M 388 520 L 452 660"/>
    <path d="M 428 520 L 472 560"/>
    <path d="M 452 520 L 380 690"/>
    <path d="M 412 520 L 348 660"/>
    <path d="M 372 520 L 328 560"/>
  </g>
  <path d="M 300 470 Q 300 500 340 502 Q 350 528 380 512 Q 400 532 420 512 Q 450 528 460 502 Q 500 500 500 470 A 100 100 0 1 0 300 470 Z" fill="#ffffff" stroke="#2b2b2b" stroke-width="12" stroke-linejoin="round"/>
  <circle cx="400" cy="330" r="90" fill="#ffffff" stroke="#2b2b2b" stroke-width="12"/>
  <circle cx="400" cy="232" r="78" fill="#ffffff" stroke="#2b2b2b" stroke-width="12"/>
  <path d="M 400 160 Q 420 120 452 118" fill="none" stroke="#2b2b2b" stroke-width="9" stroke-linecap="round"/>
  <circle cx="400" cy="150" r="30" fill="#ffffff" stroke="#2b2b2b" stroke-width="12"/>
</svg>
