<svg xmlns="http://www.w3.org/2000/svg" width="800" height="800" viewBox="0 0 800 800">
  <rect width="800" height="800" fill="#ffffff"/>
  <path d="M 100 690 H 700" fill="none" stroke="#2b2b2b" stroke-width="10" stroke-linecap="round"/>
  <g fill="#ffffff" stroke="#2b2b2b" stroke-width="12" stroke-linejoin="round">
    <rect x="130" y="400" width="140" height="290"/>
    <rect x="300" y="290" width="160" height="400"/>
    <rect x="490" y="450" width="130" height="240"/>
  </g>
  <g fill="#ffffff" stroke="#2b2b2b" stroke-width="8">
    <rect x="155" y="430" width="45" height="45"/>
    <rect x="225" y="430" width="45" height="45"/>
    <rect x="155" y="510" width="45" height="45"/>
    <rect x="225" y="510" width="45" height="45"/>
    <rect x="155" y="590" width="45" height="45"/>
    <rect x="225" y="590" width="45" height="45"/>
    <rect x="325" y="325" width="45" height="45"/>
    <rect x="395" y="325" width="45" height="45"/>
    <rect x="325" y="405" width="45" height="45"/>
    <rect x="395" y="405" width="45" height="45"/>
    <rect x="325" y="485" width="45" height="45"/>
    <rect x="395" y="485" width="45" height="45"/>
    <rect x="325" y="565" width="45" height="45"/>
    <rect x="395" y="565" width="45" height="45"/>
    <rect x="515" y="485" width="40" height="40"/>
    <rect x="570" y="485" width="40" height="40"/>
    <rect x="515" y="555" width="40" height="40"/>
    <rect x="570" y="555" width="40" height="40"/>
  </g>
  <path d="M 640 80 A 72 72 0 1 0 640 224 A 90 90 0 0 1 640 80 Z" fill="#ffffff" stroke="#2b2b2b" stroke-width="10" stroke-linejoin="round"/>
  <g fill="#ffffff" stroke="#2b2b2b" stroke-width="8" stroke-linejoin="round">
    <path d="M 175 130 L 185 160 L 215 170 L 185 180 L 175 210 L 165 180 L 135 170 L 165 160 Z"/>
    <path d="M 420 95 L 428 119 L 452 127 L 428 135 L 420 159 L 412 135 L 388 127 L 412 119 Z"/>
    <path d="M 95 300 L 103 324 L 127 332 L 103 340 L 95 364 L 87 340 L 63 332 L 87 324 Z"/>
  </g>
</svg>
