<svg xmlns="http://www.w3.org/2000/svg" width="800" height="800" viewBox="0 0 800 800">
  <rect width="800" height="800" fill="#ffffff"/>
  <g fill="#ffffff" stroke="#2b2b2b" stroke-width="12" stroke-linejoin="round">
    <polygon points="570,400 700,290 700,510"/>
    <polygon points="300,270 370,170 440,275"/>
    <polygon points="320,530 380,630 440,528"/>
    <ellipse cx="360" cy="400" rx="230" ry="150"/>
  </g>
  <g fill="none" stroke="#2b2b2b" stroke-width="10" stroke-linecap="round">
    <path d="M 350 265 Q 325 400 350 535"/>
    <path d="M 455 278 Q 430 400 455 522"/>
    <path d="M 275 300 Q 315 400 275 500"/>
    <path d="M 150 430 Q 175 450 200 440"/>
  </g>
  <circle cx="215" cy="345" r="24" fill="#ffffff" stroke="#2b2b2b" stroke-width="10"/>
  <circle cx="215" cy="345" r="9" fill="#2b2b2b"/>
  <g fill="#ffffff" stroke="#2b2b2b" stroke-width="8">
    <circle cx="640" cy="180" r="20"/>
    <circle cx="690" cy="120" r="14"/>
    <circle cx="610" cy="110" r="10"/>
  </g>
</svg>
