<svg xmlns="http://www.w3.org/2000/svg" width="800" height="800" viewBox="0 0 800 800">
  <rect width="800" height="800" fill="#ffffff"/>
  <path d="M 60 640 Q 230 600 400 640 T 740 640 L 740 740 L 60 740 Z" fill="#ffffff" stroke="#2b2b2b" stroke-width="10" stroke-linejoin="round"/>
  <g fill="none" stroke="#2b2b2b" stroke-width="12" stroke-linecap="round">
    <path d="M 95 690 Q 70 600 100 520 Q 125 470 100 415"/>
    <path d="M 660 690 V 600"/>
    <path d="M 660 630 Q 620 600 615 555"/>
    <path d="M 660 612 Q 700 588 710 545"/>
  </g>
  <g fill="#ffffff" stroke="#2b2b2b" stroke-width="12" stroke-linejoin="round">
    <ellipse cx="180" cy="570" rx="45" ry="22" transform="rotate(30,180,570)"/>
    <ellipse cx="335" cy="575" rx="45" ry="22" transform="rotate(-25,335,575)"/>
    <circle cx="398" cy="470" r="38"/>
    <ellipse cx="260" cy="490" rx="115" ry="80"/>
  </g>
  <g fill="none" stroke="#2b2b2b" stroke-width="8" stroke-linecap="round">
    <path d="M 225 415 L 212 562"/>
    <path d="M 295 415 L 308 560"/>
  </g>
  <circle cx="408" cy="458" r="7" fill="#2b2b2b"/>
  <path d="M 400 485 Q 412 495 424 487" fill="none" stroke="#2b2b2b" stroke-width="6" stroke-linecap="round"/>
  <g fill="#ffffff" stroke="#2b2b2b" stroke-width="10" stroke-linejoin="round">
    <polygon points="615,230 668,202 668,258"/>
    <ellipse cx="558" cy="230" rx="60" ry="38"/>
    <polygon points="588,420 536,394 536,446"/>
    <ellipse cx="643" cy="420" rx="55" ry="34"/>
  </g>
  <circle cx="533" cy="222" r="7" fill="#2b2b2b"/>
  <circle cx="664" cy="412" r="7" fill="#2b2b2b"/>
  <g fill="#ffffff" stroke="#2b2b2b" stroke-width="8">
    <circle cx="450" cy="180" r="18"/>
    <circle cx="480" cy="120" r="12"/>
    <circle cx="430" cy="90" r="9"/>
  </g>
</svg>
