<svg xmlns="http://www.w3.org/2000/svg" width="800" height="800" viewBox="0 0 800 800">
  <rect width="800" height="800" fill="#ffffff"/>
  <g fill="#ffffff" stroke="#2b2b2b" stroke-width="10" stroke-linejoin="round">
    <polygon points="560,700 760,700 692,460 628,460"/>
    <circle cx="660" cy="418" r="24"/>
    <circle cx="694" cy="378" r="16"/>
  </g>
  <path d="M 60 700 H 740" fill="none" stroke="#2b2b2b" stroke-width="10" stroke-linecap="round"/>
  <path d="M 225 590 Q 100 620 85 520" fill="none" stroke="#2b2b2b" stroke-width="20" stroke-linecap="round"/>
  <g fill="#ffffff" stroke="#2b2b2b" stroke-width="12" stroke-linejoin="round">
    <ellipse cx="520" cy="360" rx="45" ry="140" transform="rotate(15,520,360)"/>
    <rect x="280" y="600" width="55" height="100" rx="20"/>
    <rect x="440" y="600" width="55" height="100" rx="20"/>
    <ellipse cx="380" cy="550" rx="170" ry="100"/>
    <circle cx="545" cy="215" r="50"/>
  </g>
  <g fill="#ffffff" stroke="#2b2b2b" stroke-width="8">
    <circle cx="330" cy="540" r="16"/>
    <circle cx="420" cy="580" r="16"/>
    <circle cx="370" cy="495" r="16"/>
  </g>
  <circle cx="555" cy="203" r="7" fill="#2b2b2b"/>
  <path d="M 548 238 Q 563 250 578 240" fill="none" stroke="#2b2b2b" stroke-width="7" stroke-linecap="round"/>
</svg>
