<svg xmlns="http://www.w3.org/2000/svg" width="800" height="800" viewBox="0 0 800 800">
  <rect width="800" height="800" fill="#ffffff"/>
  <circle cx="400" cy="400" r="345" fill="#ffffff" stroke="#2b2b2b" stroke-width="10"/>
  <circle cx="400" cy="400" r="250" fill="#ffffff" stroke="#2b2b2b" stroke-width="10"/>
  <g fill="#ffffff" stroke="#2b2b2b" stroke-width="10" stroke-linejoin="round">
    <path d="M 400 68 L 425 103 L 400 138 L 375 103 Z" transform="rotate(22.5,400,400)"/>
    <path d="M 400 68 L 425 103 L 400 138 L 375 103 Z" transform="rotate(67.5,400,400)"/>
    <path d="M 400 68 L 425 103 L 400 138 L 375 103 Z" transform="rotate(112.5,400,400)"/>
    <path d="M 400 68 L 425 103 L 400 138 L 375 103 Z" transform="rotate(157.5,400,400)"/>
    <path d="M 400 68 L 425 103 L 400 138 L 375 103 Z" transform="rotate(202.5,400,400)"/>
    <path d="M 400 68 L 425 103 L 400 138 L 375 103 Z" transform="rotate(247.5,400,400)"/>
    <path d="M 400 68 L 425 103 L 400 138 L 375 103 Z" transform="rotate(292.5,400,400)"/>
    <path d="M 400 68 L 425 103 L 400 138 L 375 103 Z" transform="rotate(337.5,400,400)"/>
  </g>
  <g fill="#ffffff" stroke="#2b2b2b" stroke-width="10">
    <circle cx="400" cy="103" r="15"/>
    <circle cx="400" cy="103" r="15" transform="rotate(45,400,400)"/>
    <circle cx="400" cy="103" r="15" transform="rotate(90,400,400)"/>
    <circle cx="400" cy="103" r="15" transform="rotate(135,400,400)"/>
    <circle cx="400" cy="103" r="15" transform="rotate(180,400,400)"/>
    <circle cx="400" cy="103" r="15" transform="rotate(225,400,400)"/>
    <circle cx="400" cy="103" r="15" transform="rotate(270,400,400)"/>
    <circle cx="400" cy="103" r="15" transform="rotate(315,400,400)"/>
  </g>
  <g fill="#ffffff" stroke="#2b2b2b" stroke-width="10" stroke-linejoin="round">
    <ellipse cx="400" cy="245" rx="48" ry="88"/>
    <ellipse cx="400" cy="245" rx="48" ry="88" transform="rotate(45,400,400)"/>
    <ellipse cx="400" cy="245" rx="48" ry="88" transform="rotate(90,400,400)"/>
    <ellipse cx="400" cy="245" rx="48" ry="88" transform="rotate(135,400,400)"/>
    <ellipse cx="400" cy="245" rx="48" ry="88" transform="rotate(180,400,400)"/>
    <ellipse cx="400" cy="245" rx="48" ry="88" transform="rotate(225,400,400)"/>
    <ellipse cx="400" cy="245" rx="48" ry="88" transform="rotate(270,400,400)"/>
    <ellipse cx="400" cy="245" rx="48" ry="88" transform="rotate(315,400,400)"/>
  </g>
  <circle cx="400" cy="400" r="60" fill="#ffffff" stroke="#2b2b2b" stroke-width="10"/>
</svg>
