<svg xmlns="http://www.w3.org/2000/svg" width="800" height="800" viewBox="0 0 800 800">
  <rect width="800" height="800" fill="#ffffff"/>
  <g fill="#ffffff" stroke="#2b2b2b" stroke-width="12" stroke-linejoin="round"><polygon points="290,230 320,140 375,215"/><polygon points="510,230 480,140 425,215"/></g>
  <ellipse cx="400" cy="430" rx="190" ry="240" fill="#ffffff" stroke="#2b2b2b" stroke-width="12"/>
  <g fill="#ffffff" stroke="#2b2b2b" stroke-width="12"><ellipse cx="240" cy="480" rx="58" ry="125" transform="rotate(18,240,480)"/><ellipse cx="560" cy="480" rx="58" ry="125" transform="rotate(-18,560,480)"/></g>
  <g fill="#ffffff" stroke="#2b2b2b" stroke-width="12"><circle cx="320" cy="330" r="75"/><circle cx="480" cy="330" r="75"/><circle cx="320" cy="330" r="45"/><circle cx="480" cy="330" r="45"/></g><g fill="#2b2b2b"><circle cx="320" cy="330" r="16"/><circle cx="480" cy="330" r="16"/></g>
  <polygon points="375,398 425,398 400,452" fill="#ffffff" stroke="#2b2b2b" stroke-width="10" stroke-linejoin="round"/>
  <g fill="#ffffff" stroke="#2b2b2b" stroke-width="10"><ellipse cx="345" cy="672" rx="34" ry="16"/><ellipse cx="455" cy="672" rx="34" ry="16"/></g><path d="M 135 90 A 52 52 0 1 0 135 194 A 66 66 0 0 1 135 90 Z" fill="#ffffff" stroke="#2b2b2b" stroke-width="10" stroke-linejoin="round"/>
</svg>
