<svg xmlns="http://www.w3.org/2000/svg" width="800" height="800" viewBox="0 0 800 800">
  <rect width="800" height="800" fill="#ffffff"/>
  <g fill="#ffffff" stroke="#2b2b2b" stroke-width="12" stroke-linejoin="round"><rect x="150" y="320" width="80" height="150" rx="20"/><rect x="570" y="320" width="80" height="150" rx="20"/><rect x="300" y="580" width="80" height="140" rx="20"/><rect x="420" y="580" width="80" height="140" rx="20"/></g>
  <g fill="#ffffff" stroke="#2b2b2b" stroke-width="12" stroke-linejoin="round"><rect x="370" y="272" width="60" height="34"/><rect x="250" y="300" width="300" height="260" rx="10"/></g>
  <rect x="300" y="120" width="200" height="160" rx="10" fill="#ffffff" stroke="#2b2b2b" stroke-width="12" stroke-linejoin="round"/>
  <g fill="#ffffff" stroke="#e74c3c" stroke-width="10" stroke-linejoin="round"><rect x="340" y="170" width="40" height="40"/><rect x="420" y="170" width="40" height="40"/><rect x="350" y="235" width="100" height="22" rx="8"/><rect x="320" y="350" width="160" height="100" rx="8"/><circle cx="345" cy="505" r="13"/><circle cx="400" cy="505" r="13"/><circle cx="455" cy="505" r="13"/></g><path d="M 400 120 V 72" fill="none" stroke="#e74c3c" stroke-width="10" stroke-linecap="round"/><circle cx="400" cy="58" r="15" fill="#ffffff" stroke="#e74c3c" stroke-width="10"/>
</svg>
