<svg xmlns="http://www.w3.org/2000/svg" width="800" height="800" viewBox="0 0 800 800">
  <rect width="800" height="800" fill="#ffffff"/>
  <path d="M 100 660 H 700" fill="none" stroke="#2b2b2b" stroke-width="10" stroke-linecap="round"/>
  <rect x="140" y="330" width="160" height="240" rx="10" fill="#ffffff" stroke="#2b2b2b" stroke-width="12" stroke-linejoin="round"/>
  <g fill="#ffffff" stroke="#2b2b2b" stroke-width="12" stroke-linejoin="round"><rect x="330" y="360" width="50" height="70"/><rect x="300" y="430" width="180" height="140" rx="10"/></g>
  <path d="M 480 520 H 530" fill="none" stroke="#2b2b2b" stroke-width="12" stroke-linecap="round"/><rect x="530" y="460" width="190" height="110" rx="10" fill="#ffffff" stroke="#2b2b2b" stroke-width="12" stroke-linejoin="round"/>
  <g fill="#ffffff" stroke="#2b2b2b" stroke-width="12"><circle cx="220" cy="612" r="45"/><circle cx="350" cy="612" r="45"/><circle cx="450" cy="612" r="45"/></g><g fill="#2b2b2b"><circle cx="220" cy="612" r="14"/><circle cx="350" cy="612" r="14"/><circle cx="450" cy="612" r="14"/></g>
  <g fill="#ffffff" stroke="#2b2b2b" stroke-width="12"><circle cx="580" cy="612" r="42"/><circle cx="670" cy="612" r="42"/></g><g fill="#2b2b2b"><circle cx="580" cy="612" r="13"/><circle cx="670" cy="612" r="13"/></g>
  <rect x="170" y="370" width="100" height="90" rx="8" fill="#ffffff" stroke="#2b2b2b" stroke-width="10"/><g fill="#ffffff" stroke="#2b2b2b" stroke-width="10"><circle cx="355" cy="318" r="22"/><circle cx="392" cy="275" r="15"/></g>
</svg>
