<svg xmlns="http://www.w3.org/2000/svg" width="800" height="800" viewBox="0 0 800 800">
  <rect width="800" height="800" fill="#ffffff"/>
  <circle cx="400" cy="420" r="280" fill="#ffffff" stroke="#2b2b2b" stroke-width="12"/>
  <path d="M 150 350 Q 400 400 650 350" fill="none" stroke="#2b2b2b" stroke-width="10" stroke-linecap="round"/>
  <g fill="none" stroke="#2b2b2b" stroke-width="10" stroke-linecap="round"><path d="M 218 612 Q 198 545 218 480"/><path d="M 250 625 Q 264 565 248 508"/></g>
  <g fill="#ffffff" stroke="#2b2b2b" stroke-width="8"><ellipse cx="300" cy="650" rx="28" ry="16"/><ellipse cx="370" cy="662" rx="30" ry="16"/><ellipse cx="450" cy="655" rx="26" ry="15"/><ellipse cx="520" cy="640" rx="24" ry="14"/></g>
  <g fill="#ffffff" stroke="#2b2b2b" stroke-width="10" stroke-linejoin="round"><polygon points="385,470 435,445 435,495"/><ellipse cx="330" cy="470" rx="55" ry="35"/><polygon points="458,555 412,533 412,577"/><ellipse cx="505" cy="555" rx="48" ry="30"/></g><g fill="#2b2b2b"><circle cx="308" cy="462" r="6"/><circle cx="525" cy="548" r="6"/></g>
  <g fill="#ffffff" stroke="#e74c3c" stroke-width="8"><circle cx="348" cy="412" r="11"/><circle cx="326" cy="380" r="8"/><circle cx="540" cy="505" r="10"/><circle cx="560" cy="470" r="8"/></g>
</svg>
