<svg xmlns="http://www.w3.org/2000/svg" width="800" height="800" viewBox="0 0 800 800">
  <rect width="800" height="800" fill="#ffffff"/>
  <rect x="280" y="350" width="240" height="330" fill="#ffffff" stroke="#2b2b2b" stroke-width="12" stroke-linejoin="round"/>
  <g fill="#ffffff" stroke="#2b2b2b" stroke-width="10" stroke-linejoin="round"><rect x="280" y="320" width="42" height="32"/><rect x="346" y="320" width="42" height="32"/><rect x="412" y="320" width="42" height="32"/><rect x="478" y="320" width="42" height="32"/></g>
  <g fill="#ffffff" stroke="#2b2b2b" stroke-width="12" stroke-linejoin="round"><rect x="180" y="300" width="100" height="380"/><rect x="520" y="300" width="100" height="380"/><polygon points="170,300 290,300 230,195"/><polygon points="510,300 630,300 570,195"/></g>
  <path d="M 355 680 V 575 Q 355 520 400 520 Q 445 520 445 575 V 680 Z" fill="#ffffff" stroke="#2b2b2b" stroke-width="12" stroke-linejoin="round"/><circle cx="400" cy="430" r="26" fill="#ffffff" stroke="#2b2b2b" stroke-width="10"/><g fill="#ffffff" stroke="#2b2b2b" stroke-width="10"><rect x="218" y="380" width="24" height="60" rx="10"/><rect x="558" y="380" width="24" height="60" rx="10"/></g>
  <path d="M 230 195 V 120" fill="none" stroke="#2b2b2b" stroke-width="8" stroke-linecap="round"/><polygon points="230,122 295,143 230,164" fill="#ffffff" stroke="#2b2b2b" stroke-width="10" stroke-linejoin="round"/><g fill="none" stroke="#2b2b2b" stroke-width="10" stroke-linecap="round"><path d="M 370 680 Q 348 735 315 775"/><path d="M 430 680 Q 452 735 485 775"/></g>
</svg>
