<svg xmlns="http://www.w3.org/2000/svg" width="800" height="800" viewBox="0 0 800 800">
  <rect width="800" height="800" fill="#ffffff"/>
  <polygon points="100,600 520,600 310,220" fill="#ffffff" stroke="#2b2b2b" stroke-width="12" stroke-linejoin="round"/>
  <polygon points="260,320 310,220 360,320 335,345 310,320 285,345" fill="#ffffff" stroke="#2b2b2b" stroke-width="10" stroke-linejoin="round"/>
  <circle cx="640" cy="160" r="58" fill="#ffffff" stroke="#2b2b2b" stroke-width="12"/><g fill="none" stroke="#2b2b2b" stroke-width="10" stroke-linecap="round"><path d="M 640 75 V 45"/><path d="M 640 245 V 275"/><path d="M 555 160 H 525"/><path d="M 725 160 H 755"/><path d="M 580 100 L 558 78"/><path d="M 700 100 L 722 78"/><path d="M 580 220 L 558 242"/><path d="M 700 220 L 722 242"/></g>
  <g fill="none" stroke="#2b2b2b" stroke-width="10" stroke-linecap="round"><path d="M 60 600 H 740"/><path d="M 400 600 Q 350 690 430 790"/><path d="M 480 600 Q 440 690 520 790"/></g>
  <g fill="#ffffff" stroke="#e74c3c" stroke-width="10" stroke-linejoin="round"><rect x="608" y="575" width="24" height="25"/><polygon points="575,575 665,575 620,445"/><rect x="155" y="580" width="20" height="20"/><polygon points="130,580 200,580 165,465"/></g>
</svg>
