<svg xmlns="http://www.w3.org/2000/svg" width="800" height="800" viewBox="0 0 800 800">
  <rect width="800" height="800" fill="#ffffff"/>
  <path d="M 600 400 Q 690 350 700 280" fill="none" stroke="#2b2b2b" stroke-width="16" stroke-linecap="round"/>
  <ellipse cx="430" cy="430" rx="180" ry="110" fill="#ffffff" stroke="#2b2b2b" stroke-width="12"/>
  <g fill="#ffffff" stroke="#2b2b2b" stroke-width="10" stroke-linejoin="round"><rect x="300" y="505" width="42" height="150" rx="14"/><rect x="355" y="512" width="40" height="143" rx="14"/><rect x="495" y="512" width="42" height="143" rx="14"/><rect x="550" y="505" width="42" height="150" rx="14"/></g>
  <ellipse cx="295" cy="245" rx="30" ry="62" transform="rotate(-20,295,245)" fill="#ffffff" stroke="#2b2b2b" stroke-width="12"/>
  <circle cx="215" cy="300" r="85" fill="#ffffff" stroke="#2b2b2b" stroke-width="12"/><ellipse cx="150" cy="335" rx="55" ry="38" fill="#ffffff" stroke="#2b2b2b" stroke-width="12"/>
  <g fill="#e74c3c"><circle cx="185" cy="270" r="9"/><ellipse cx="103" cy="320" rx="15" ry="11"/></g><path d="M 116 348 Q 140 365 168 356" fill="none" stroke="#e74c3c" stroke-width="8" stroke-linecap="round"/><g fill="#ffffff" stroke="#e74c3c" stroke-width="8"><circle cx="470" cy="400" r="22"/><circle cx="395" cy="462" r="15"/></g>
</svg>
