<svg xmlns="http://www.w3.org/2000/svg" width="800" height="800" viewBox="0 0 800 800">
  <rect width="800" height="800" fill="#ffffff"/>
  <g fill="#ffffff" stroke="#e74c3c" stroke-width="10"><ellipse cx="198" cy="400" rx="26" ry="48"/><ellipse cx="602" cy="400" rx="26" ry="48"/></g>
  <ellipse cx="400" cy="400" rx="200" ry="250" fill="#ffffff" stroke="#2b2b2b" stroke-width="12"/>
  <g fill="none" stroke="#2b2b2b" stroke-width="6" stroke-dasharray="14 14" stroke-linecap="round"><path d="M 210 400 H 590"/><path d="M 400 158 V 642"/></g>
  <g fill="#ffffff" stroke="#2b2b2b" stroke-width="10"><ellipse cx="310" cy="400" rx="45" ry="22"/><ellipse cx="490" cy="400" rx="45" ry="22"/></g><g fill="#2b2b2b"><circle cx="310" cy="400" r="12"/><circle cx="490" cy="400" r="12"/></g>
  <g fill="none" stroke="#2b2b2b" stroke-width="8" stroke-linecap="round"><path d="M 400 425 V 488"/><path d="M 372 500 Q 400 516 428 500"/></g>
  <path d="M 325 560 Q 400 605 475 560" fill="none" stroke="#2b2b2b" stroke-width="10" stroke-linecap="round"/>
  <g fill="none" stroke="#e74c3c" stroke-width="9" stroke-linecap="round"><path d="M 262 352 Q 310 332 358 352"/><path d="M 442 352 Q 490 332 538 352"/><path d="M 205 330 Q 245 165 400 155 Q 555 165 595 330"/></g>
</svg>
