<svg xmlns="http://www.w3.org/2000/svg" width="800" height="800" viewBox="0 0 800 800">
  <rect width="800" height="800" fill="#ffffff"/>
  <path d="M 360 290 Q 200 430 225 660 L 575 660 Q 600 430 440 290 Z" fill="#ffffff" stroke="#2b2b2b" stroke-width="12" stroke-linejoin="round"/>
  <g fill="#ffffff" stroke="#2b2b2b" stroke-width="10"><ellipse cx="322" cy="260" rx="28" ry="90"/><ellipse cx="478" cy="260" rx="28" ry="90"/></g>
  <circle cx="400" cy="190" r="75" fill="#ffffff" stroke="#2b2b2b" stroke-width="12"/>
  <path d="M 328 165 Q 400 92 472 165" fill="none" stroke="#2b2b2b" stroke-width="10" stroke-linecap="round"/>
  <rect x="365" y="260" width="70" height="65" rx="15" fill="#ffffff" stroke="#2b2b2b" stroke-width="10"/><polygon points="355,305 445,305 530,660 270,660" fill="#ffffff" stroke="#2b2b2b" stroke-width="12" stroke-linejoin="round"/>
  <g fill="#ffffff" stroke="#2b2b2b" stroke-width="10" stroke-linejoin="round"><rect x="330" y="290" width="30" height="110" rx="15" transform="rotate(28,345,295)"/><rect x="440" y="290" width="30" height="110" rx="15" transform="rotate(-28,455,295)"/><circle cx="298" cy="392" r="14"/><circle cx="502" cy="392" r="14"/></g>
  <polygon points="360,112 360,74 382,94 400,66 418,94 440,74 440,112" fill="#ffffff" stroke="#2b2b2b" stroke-width="10" stroke-linejoin="round"/>
  <g fill="#2b2b2b"><circle cx="375" cy="185" r="8"/><circle cx="425" cy="185" r="8"/><circle cx="400" cy="93" r="6"/></g><g fill="none" stroke="#2b2b2b" stroke-width="8" stroke-linecap="round"><path d="M 375 215 Q 400 233 425 215"/><path d="M 302 565 Q 400 590 498 565"/></g>
</svg>
