<svg xmlns="http://www.w3.org/2000/svg" width="800" height="800" viewBox="0 0 800 800">
  <rect width="800" height="800" fill="#ffffff"/>
  <g fill="none" stroke="#2b2b2b" stroke-width="5" stroke-dasharray="12 12" stroke-linecap="round"><path d="M 400 100 V 648"/><path d="M 360 198 H 440"/><path d="M 360 372 H 440"/><path d="M 362 508 H 438"/></g>
  <g fill="#ffffff" stroke="#2b2b2b" stroke-width="11" stroke-linejoin="round"><rect x="356" y="424" width="40" height="122" rx="16" transform="rotate(4,376,428)"/><rect x="357" y="540" width="36" height="112" rx="15" transform="rotate(2,375,544)"/><rect x="404" y="424" width="40" height="122" rx="16" transform="rotate(-4,424,428)"/><rect x="407" y="540" width="36" height="112" rx="15" transform="rotate(-2,425,544)"/></g>
  <g fill="#ffffff" stroke="#2b2b2b" stroke-width="11" stroke-linejoin="round"><rect x="315" y="205" width="34" height="118" rx="16" transform="rotate(12,332,210)"/><rect x="300" y="312" width="32" height="116" rx="15" transform="rotate(6,316,315)"/><rect x="451" y="205" width="34" height="118" rx="16" transform="rotate(-12,468,210)"/><rect x="468" y="312" width="32" height="116" rx="15" transform="rotate(-6,484,315)"/></g>
  <g fill="#ffffff" stroke="#2b2b2b" stroke-width="10"><circle cx="309" cy="432" r="16"/><circle cx="491" cy="432" r="16"/><ellipse cx="366" cy="658" rx="34" ry="16"/><ellipse cx="434" cy="658" rx="34" ry="16"/></g>
  <rect x="386" y="188" width="28" height="26" fill="#ffffff" stroke="#2b2b2b" stroke-width="12"/><path d="M 340 212 Q 400 198 460 212 L 448 360 Q 400 374 352 360 Z" fill="#ffffff" stroke="#2b2b2b" stroke-width="12" stroke-linejoin="round"/>
  <path d="M 352 360 L 448 360 L 460 430 Q 400 448 340 430 Z" fill="#ffffff" stroke="#2b2b2b" stroke-width="12" stroke-linejoin="round"/>
  <ellipse cx="400" cy="150" rx="42" ry="48" fill="#ffffff" stroke="#2b2b2b" stroke-width="12"/>
  <g fill="#2b2b2b"><circle cx="385" cy="148" r="6"/><circle cx="415" cy="148" r="6"/></g><g fill="none" stroke="#2b2b2b" stroke-width="7" stroke-linecap="round"><path d="M 400 156 V 168"/><path d="M 385 179 Q 400 191 415 179"/></g><path d="M 356 140 Q 368 94 400 90 Q 432 94 444 140" fill="none" stroke="#2b2b2b" stroke-width="10" stroke-linecap="round"/>
</svg>
