<svg xmlns="http://www.w3.org/2000/svg" width="800" height="800" viewBox="0 0 800 800">
  <rect width="800" height="800" fill="#ffffff"/>
  <g fill="#ffffff" stroke="#2b2b2b" stroke-width="12"><ellipse cx="225" cy="330" rx="165" ry="70" transform="rotate(-20,225,330)"/><ellipse cx="575" cy="330" rx="165" ry="70" transform="rotate(20,575,330)"/></g>
  <g fill="none" stroke="#2b2b2b" stroke-width="8" stroke-linecap="round"><path d="M 335 355 Q 235 330 130 320"/><path d="M 330 382 Q 240 372 150 372"/><path d="M 325 408 Q 250 407 178 412"/><path d="M 465 355 Q 565 330 670 320"/><path d="M 470 382 Q 560 372 650 372"/><path d="M 475 408 Q 550 407 622 412"/></g>
  <polygon points="360,555 440,555 475,655 325,655" fill="#ffffff" stroke="#2b2b2b" stroke-width="12" stroke-linejoin="round"/><g fill="none" stroke="#2b2b2b" stroke-width="8" stroke-linecap="round"><path d="M 400 560 V 648"/><path d="M 372 558 L 353 648"/><path d="M 428 558 L 447 648"/></g>
  <ellipse cx="400" cy="430" rx="70" ry="140" fill="#ffffff" stroke="#2b2b2b" stroke-width="12"/>
  <g fill="#ffffff" stroke="#e74c3c" stroke-width="8"><ellipse cx="352" cy="545" rx="16" ry="11"/><ellipse cx="448" cy="545" rx="16" ry="11"/></g><g fill="none" stroke="#e74c3c" stroke-width="6" stroke-linecap="round"><path d="M 345 554 L 340 570"/><path d="M 352 556 L 352 572"/><path d="M 359 554 L 364 570"/><path d="M 441 554 L 436 570"/><path d="M 448 556 L 448 572"/><path d="M 455 554 L 460 570"/></g>
  <circle cx="400" cy="235" r="58" fill="#ffffff" stroke="#2b2b2b" stroke-width="12"/>
  <polygon points="384,262 416,262 400,302" fill="#ffffff" stroke="#e74c3c" stroke-width="10" stroke-linejoin="round"/>
</svg>
