<svg xmlns="http://www.w3.org/2000/svg" width="800" height="800" viewBox="0 0 800 800">
  <rect width="800" height="800" fill="#ffffff"/>
  <g fill="#ffffff" stroke="#e74c3c" stroke-width="10" stroke-linejoin="round"><rect x="300" y="450" width="38" height="200" rx="14" transform="rotate(8,319,450)"/><rect x="352" y="455" width="38" height="160" rx="14" transform="rotate(-28,371,455)"/><rect x="488" y="445" width="40" height="205" rx="14" transform="rotate(-16,508,445)"/><rect x="556" y="432" width="40" height="195" rx="14" transform="rotate(20,576,432)"/></g>
  <ellipse cx="255" cy="290" rx="50" ry="115" transform="rotate(-35,255,290)" fill="#ffffff" stroke="#2b2b2b" stroke-width="12"/>
  <ellipse cx="420" cy="380" rx="185" ry="95" fill="#ffffff" stroke="#2b2b2b" stroke-width="12"/>
  <g fill="#ffffff" stroke="#2b2b2b" stroke-width="12" stroke-linejoin="round"><polygon points="185,170 205,108 232,163"/><polygon points="142,168 150,102 182,158"/><ellipse cx="150" cy="200" rx="75" ry="43" transform="rotate(-12,150,200)"/></g>
</svg>
