<svg xmlns="http://www.w3.org/2000/svg" width="800" height="800" viewBox="0 0 800 800">
  <rect width="800" height="800" fill="#ffffff"/>
  <path d="M 100 565 H 700" fill="none" stroke="#2b2b2b" stroke-width="10" stroke-linecap="round"/>
  <polygon points="280,365 500,365 555,430 235,430" fill="#ffffff" stroke="#2b2b2b" stroke-width="12" stroke-linejoin="round"/>
  <rect x="120" y="430" width="560" height="80" rx="25" fill="#ffffff" stroke="#2b2b2b" stroke-width="12"/>
  <g fill="#ffffff" stroke="#2b2b2b" stroke-width="12"><circle cx="250" cy="510" r="55"/><circle cx="550" cy="510" r="55"/></g><g fill="#ffffff" stroke="#2b2b2b" stroke-width="10"><circle cx="250" cy="510" r="22"/><circle cx="550" cy="510" r="22"/></g>
  <g fill="#ffffff" stroke="#2b2b2b" stroke-width="10" stroke-linejoin="round"><polygon points="295,375 390,375 390,422 268,422"/><polygon points="405,375 492,375 535,422 405,422"/></g>
  <g fill="#ffffff" stroke="#2b2b2b" stroke-width="8"><ellipse cx="140" cy="455" rx="15" ry="10"/><ellipse cx="660" cy="455" rx="13" ry="9"/></g><g fill="none" stroke="#2b2b2b" stroke-width="8" stroke-linecap="round"><path d="M 397 430 V 505"/><path d="M 362 452 H 392"/></g>
  <rect x="640" y="393" width="52" height="13" rx="6" fill="#ffffff" stroke="#2b2b2b" stroke-width="9"/><g fill="none" stroke="#2b2b2b" stroke-width="9" stroke-linecap="round"><path d="M 658 430 L 664 406"/><path d="M 705 445 H 765"/><path d="M 710 475 H 758"/></g>
</svg>
