<svg xmlns="http://www.w3.org/2000/svg" width="800" height="800" viewBox="0 0 800 800">
  <rect width="800" height="800" fill="#ffffff"/>
  <rect x="388" y="180" width="24" height="340" fill="#ffffff" stroke="#2b2b2b" stroke-width="10"/>
  <g fill="#ffffff" stroke="#2b2b2b" stroke-width="12" stroke-linejoin="round"><path d="M 320 230 Q 400 205 480 230 L 500 380 Q 400 415 300 380 Z"/><path d="M 345 120 Q 400 102 455 120 L 470 200 Q 400 222 330 200 Z"/></g><g fill="none" stroke="#2b2b2b" stroke-width="9" stroke-linecap="round"><path d="M 318 228 H 482"/><path d="M 343 118 H 457"/></g>
  <path d="M 412 60 Q 470 48 524 60 L 524 130 Q 470 142 412 130 Z" fill="#ffffff" stroke="#2b2b2b" stroke-width="10" stroke-linejoin="round"/><circle cx="462" cy="86" r="13" fill="#ffffff" stroke="#2b2b2b" stroke-width="8"/><g fill="none" stroke="#2b2b2b" stroke-width="7" stroke-linecap="round"><path d="M 446 108 L 480 120"/><path d="M 480 108 L 446 120"/></g>
  <path d="M 160 520 L 640 520 L 590 650 Q 400 685 210 650 Z" fill="#ffffff" stroke="#2b2b2b" stroke-width="12" stroke-linejoin="round"/>
  <g fill="#ffffff" stroke="#2b2b2b" stroke-width="9"><circle cx="285" cy="580" r="15"/><circle cx="400" cy="592" r="15"/><circle cx="515" cy="580" r="15"/></g>
  <path d="M 165 522 L 85 478" fill="none" stroke="#e74c3c" stroke-width="12" stroke-linecap="round"/><path d="M 180 548 H 622" fill="none" stroke="#e74c3c" stroke-width="7" stroke-linecap="round"/>
  <g fill="none" stroke="#2b2b2b" stroke-width="10" stroke-linecap="round"><path d="M 110 660 Q 155 632 200 660 T 380 660 T 560 660 T 740 660"/><path d="M 170 706 Q 215 680 260 706 T 440 706 T 620 706"/></g>
</svg>
