<svg xmlns="http://www.w3.org/2000/svg" width="800" height="800" viewBox="0 0 800 800">
  <rect width="800" height="800" fill="#ffffff"/>
  <polygon points="400,318 500,318 548,245 452,245" fill="#ffffff" stroke="#2b2b2b" stroke-width="10" stroke-linejoin="round"/>
  <g fill="#ffffff" stroke="#2b2b2b" stroke-width="12" stroke-linejoin="round"><polygon points="612,328 668,212 676,332"/><polygon points="635,348 722,328 700,372"/></g>
  <ellipse cx="400" cy="380" rx="280" ry="70" fill="#ffffff" stroke="#2b2b2b" stroke-width="12"/>
  <polygon points="340,400 470,400 550,500 400,500" fill="#ffffff" stroke="#2b2b2b" stroke-width="12" stroke-linejoin="round"/>
  <ellipse cx="352" cy="442" rx="38" ry="20" fill="#ffffff" stroke="#2b2b2b" stroke-width="10"/>
  <rect x="140" y="350" width="48" height="24" rx="12" fill="#ffffff" stroke="#2b2b2b" stroke-width="9"/><g fill="#ffffff" stroke="#2b2b2b" stroke-width="8"><circle cx="230" cy="362" r="10"/><circle cx="272" cy="362" r="10"/><circle cx="314" cy="362" r="10"/><circle cx="356" cy="362" r="10"/><circle cx="398" cy="362" r="10"/><circle cx="440" cy="362" r="10"/><circle cx="482" cy="362" r="10"/><circle cx="524" cy="362" r="10"/></g>
  <rect x="552" y="348" width="30" height="46" rx="8" fill="#ffffff" stroke="#2b2b2b" stroke-width="8"/><g fill="none" stroke="#2b2b2b" stroke-width="8" stroke-linecap="round"><path d="M 150 392 H 636"/><path d="M 712 400 H 768"/><path d="M 718 430 H 760"/></g>
</svg>
