<svg xmlns="http://www.w3.org/2000/svg" width="800" height="800" viewBox="0 0 800 800">
  <rect width="800" height="800" fill="#ffffff"/>
  <g fill="#ffffff" stroke="#2b2b2b" stroke-width="12" stroke-linejoin="round"><rect x="110" y="110" width="580" height="580" rx="16"/><rect x="82" y="128" width="30" height="544" rx="15"/><rect x="688" y="128" width="30" height="544" rx="15"/></g>
  <ellipse cx="400" cy="420" rx="195" ry="145" fill="#ffffff" stroke="#2b2b2b" stroke-width="12"/>
  <path d="M 268 502 Q 322 425 400 455 Q 478 485 505 405" fill="none" stroke="#2b2b2b" stroke-width="8" stroke-dasharray="16 18" stroke-linecap="round"/>
  <g fill="none" stroke="#2b2b2b" stroke-width="14" stroke-linecap="round"><path d="M 490 382 L 530 422"/><path d="M 530 382 L 490 422"/></g>
  <path d="M 322 432 Q 328 398 316 372" fill="none" stroke="#e74c3c" stroke-width="8" stroke-linecap="round"/><g fill="none" stroke="#e74c3c" stroke-width="7" stroke-linecap="round"><path d="M 316 372 Q 285 356 262 363"/><path d="M 316 372 Q 300 344 281 339"/><path d="M 316 372 Q 342 348 362 352"/></g><polygon points="430,352 494,352 462,302" fill="#ffffff" stroke="#e74c3c" stroke-width="9" stroke-linejoin="round"/>
</svg>
