<svg xmlns="http://www.w3.org/2000/svg" width="800" height="800" viewBox="0 0 800 800">
  <rect width="800" height="800" fill="#ffffff"/>
  <path d="M 320 400 A 80 80 0 0 1 480 400 Z" fill="#ffffff" stroke="#2b2b2b" stroke-width="12" stroke-linejoin="round"/>
  <path d="M 60 400 H 740" fill="none" stroke="#2b2b2b" stroke-width="10" stroke-linecap="round"/>
  <g fill="none" stroke="#2b2b2b" stroke-width="8" stroke-linecap="round"><path d="M 100 452 H 290"/><path d="M 470 470 H 640"/><path d="M 160 505 H 330"/><path d="M 385 428 H 415"/><path d="M 372 458 H 428"/><path d="M 388 488 H 412"/></g>
  <path d="M 60 560 Q 400 518 740 560 L 740 780 L 60 780 Z" fill="#ffffff" stroke="#2b2b2b" stroke-width="10" stroke-linejoin="round"/>
  <path d="M 200 758 Q 214 660 185 588" fill="none" stroke="#2b2b2b" stroke-width="18" stroke-linecap="round"/><g fill="none" stroke="#2b2b2b" stroke-width="11" stroke-linecap="round"><path d="M 185 588 Q 122 552 88 568"/><path d="M 185 588 Q 142 522 115 514"/><path d="M 185 588 Q 198 512 220 494"/><path d="M 185 588 Q 248 524 282 528"/><path d="M 185 588 Q 258 568 288 596"/></g><g fill="#ffffff" stroke="#2b2b2b" stroke-width="8"><circle cx="170" cy="602" r="11"/><circle cx="202" cy="606" r="11"/></g>
  <g fill="none" stroke="#2b2b2b" stroke-width="8" stroke-linecap="round"><path d="M 560 180 Q 575 163 590 180 Q 605 163 620 180"/><path d="M 640 235 Q 652 221 664 235 Q 676 221 688 235"/></g><g fill="#ffffff" stroke="#2b2b2b" stroke-width="8"><circle cx="590" cy="105" r="22"/><circle cx="625" cy="98" r="26"/><ellipse cx="608" cy="122" rx="52" ry="20"/></g>
</svg>
