<svg xmlns="http://www.w3.org/2000/svg" width="800" height="800" viewBox="0 0 800 800">
  <rect width="800" height="800" fill="#ffffff"/>
  <g stroke="#e8a04c" stroke-width="10" fill="none" stroke-linecap="round">
    <path d="M 250 560 Q 420 610 640 520"/>
    <path d="M 620 425 Q 640 370 665 350"/>
    <path d="M 645 440 Q 680 405 705 395"/>
  </g>
  <circle cx="668" cy="347" r="9" fill="#e8a04c"/>
  <circle cx="708" cy="393" r="9" fill="#e8a04c"/>
  <circle cx="600" cy="470" r="55" fill="#ffffff" stroke="#e8a04c" stroke-width="10"/>
  <circle cx="585" cy="458" r="7" fill="#2b2b2b"/>
  <circle cx="615" cy="458" r="7" fill="#2b2b2b"/>
  <path d="M 582 492 Q 600 504 618 494" fill="none" stroke="#2b2b2b" stroke-width="6" stroke-linecap="round"/>
  <path d="M 380 400 A 30 30 0 1 1 380 460 A 60 60 0 1 1 380 340 A 90 90 0 1 1 380 520 A 120 120 0 1 1 380 280" fill="none" stroke="#5a9bd5" stroke-width="10" stroke-dasharray="20 24" stroke-linecap="round"/>
  <circle cx="380" cy="400" r="16" fill="#2ecc71"/>
  <circle cx="380" cy="280" r="16" fill="#e74c3c"/>
</svg>
